<svg width="50" height="50" viewBox="0 0 50 50" fill="none" xmlns="http://www.w3.org/2000/svg">
<g filter="url(#filter0_d_3_23)">
<path fill-rule="evenodd" clip-rule="evenodd" d="M21.9177 12.7997C21.9608 12.8127 22.0038 12.8261 22.0469 12.8399C23.6016 13.3 24.8005 14.185 25.7247 15.2637C26.5952 16.2798 27.2221 17.4679 27.6731 18.6348C27.5474 17.3638 27.5456 15.9545 27.8068 14.7392C27.8447 14.5628 27.8882 14.3904 27.9376 14.2232C27.9933 14.0348 28.0566 13.8529 28.128 13.679C28.3161 13.221 28.5608 12.8181 28.8734 12.4966C28.8734 12.4966 36.3644 17.1473 36.3644 22.5467C36.3644 26.1833 33.4 28.3942 29.7296 28.5445C29.448 28.556 29.1622 28.5554 28.8734 28.5424L28.8638 32.4528C28.8638 33.171 28.9858 33.8284 29.2299 34.4251C29.233 34.4324 29.236 34.4398 29.239 34.4471C29.4684 35.0496 29.9375 35.5482 30.6464 35.9429V36.3792H19.554V35.9429C20.2629 35.5482 20.732 35.0496 20.9614 34.4471C20.9644 34.4398 20.9674 34.4324 20.9705 34.4251C21.2146 33.8284 21.3367 33.171 21.3367 32.4528L21.3366 16.4215C21.3366 15.6201 21.145 14.9983 20.8284 14.539C19.3601 12.4087 15.2047 13.7717 15.0176 16.9069C15.0133 16.9794 15.0111 17.0528 15.0111 17.1272C15.0111 19.2636 16.3146 20.2299 17.5197 21.1233C18.3093 21.7087 19.0568 22.2628 19.3677 23.0942C19.4647 23.3537 19.5192 23.6402 19.5192 23.963C19.5192 24.3389 19.4657 24.684 19.3677 24.9962C18.2411 28.5845 11.235 27.8324 12.0296 19.6714C12.1552 18.3821 12.5374 17.2335 13.1088 16.2528C14.8896 13.1961 18.5077 11.7705 21.9177 12.7997ZM19.3677 28.1149C19.3526 28.1252 19.3373 28.1354 19.3221 28.1456C18.0327 29.0014 16.4129 29.2023 14.919 28.7865C11.7268 27.8983 9.57902 24.5238 10.0698 19.4835C10.7117 12.8912 16.9 9.15049 22.6308 10.9736C24.0969 11.411 25.2949 12.1393 26.2731 13.0198C26.5411 12.3439 26.92 11.6915 27.4565 11.1397L28.5646 10L29.9175 10.8399L28.8734 12.4966C29.9175 10.8399 29.9175 10.8399 29.9175 10.8399L29.9196 10.8412L29.9223 10.8429L29.9298 10.8476C29.9358 10.8513 29.9435 10.8562 29.953 10.8622C29.9719 10.8741 29.9978 10.8906 30.0302 10.9115C30.0951 10.9534 30.1861 11.0129 30.2995 11.0891C30.5262 11.2415 30.8436 11.4616 31.2217 11.7418C31.9746 12.2996 32.985 13.1082 34.0032 14.1072C35.9406 16.0083 38.3333 19.0114 38.3333 22.5467C38.3333 25.1333 37.1719 27.2457 35.3321 28.6361C34.0535 29.6024 32.4951 30.1892 30.8377 30.4084L30.8327 32.4528V32.4549C30.8329 32.9551 30.9183 33.3626 31.0594 33.7025L31.0705 33.7293L31.0809 33.7564C31.1086 33.8292 31.1997 34.0104 31.6098 34.2387L32.6154 34.7986V38.3333H17.585V34.7986L18.5906 34.2387C19.0007 34.0104 19.0918 33.8292 19.1195 33.7564L19.1299 33.7293L19.141 33.7025C19.2823 33.3621 19.3677 32.954 19.3677 32.4528L19.3677 28.1149ZM19.3677 20.0611L19.3677 16.4215C19.3677 15.7468 19.1596 15.5871 19.1353 15.5685V15.5685C19.0717 15.519 18.8719 15.4212 18.4883 15.4828C17.6486 15.6177 16.98 16.2924 16.98 17.1272C16.98 17.748 17.1522 18.1111 17.3792 18.4066C17.6616 18.7742 18.0595 19.0844 18.698 19.5577C18.7417 19.5901 18.7879 19.624 18.8362 19.6594C18.9946 19.7756 19.1759 19.9087 19.3677 20.0611Z" fill="white"/>
</g>
<g opacity="0.5" filter="url(#filter1_f_3_23)">
<path fill-rule="evenodd" clip-rule="evenodd" d="M40.1742 42.6057C45.1148 38.3435 48.2421 32.037 48.2421 25C48.2421 12.1637 37.8362 1.75781 24.9999 1.75781C17.9629 1.75781 11.6562 4.88521 7.3941 9.82594C11.6282 5.28261 17.6649 2.44141 24.3652 2.44141C37.1745 2.44141 47.5585 12.8254 47.5585 25.6348C47.5585 32.335 44.7174 38.3716 40.1742 42.6057Z" fill="url(#paint0_linear_3_23)"/>
</g>
<defs>
<filter id="filter0_d_3_23" x="7.5" y="9.16667" width="31.6667" height="31.6667" filterUnits="userSpaceOnUse" color-interpolation-filters="sRGB">
<feFlood flood-opacity="0" result="BackgroundImageFix"/>
<feColorMatrix in="SourceAlpha" type="matrix" values="0 0 0 0 0 0 0 0 0 0 0 0 0 0 0 0 0 0 127 0" result="hardAlpha"/>
<feOffset dx="-0.833333" dy="0.833333"/>
<feGaussianBlur stdDeviation="0.833333"/>
<feComposite in2="hardAlpha" operator="out"/>
<feColorMatrix type="matrix" values="0 0 0 0 0 0 0 0 0 0 0 0 0 0 0 0 0 0 0.25 0"/>
<feBlend mode="normal" in2="BackgroundImageFix" result="effect1_dropShadow_3_23"/>
<feBlend mode="normal" in="SourceGraphic" in2="effect1_dropShadow_3_23" result="shape"/>
</filter>
<filter id="filter1_f_3_23" x="6.56077" y="0.924479" width="42.5147" height="42.5145" filterUnits="userSpaceOnUse" color-interpolation-filters="sRGB">
<feFlood flood-opacity="0" result="BackgroundImageFix"/>
<feBlend mode="normal" in="SourceGraphic" in2="BackgroundImageFix" result="shape"/>
<feGaussianBlur stdDeviation="0.416667" result="effect1_foregroundBlur_3_23"/>
</filter>
<linearGradient id="paint0_linear_3_23" x1="7.42186" y1="1.75781" x2="48.2422" y2="42.5781" gradientUnits="userSpaceOnUse">
<stop stop-color="white" stop-opacity="0.5"/>
<stop offset="0.484375" stop-color="white"/>
<stop offset="1" stop-color="white" stop-opacity="0.5"/>
</linearGradient>
</defs>
</svg>
